# xmcd
#
# Track frame offsets:
#	150
#	14396
#	28092
#	48739
#
# Disc length: 920 seconds
#
# Revision: 2
# Processed by: cddbd v1.5.2PL0 Copyright (c) Steve Scherf et al.
# Submitted via: audiograbber 1.83.01
#
DISCID=2e039604
DTITLE=Drummboys - Ritmo de locos [CDs)
DYEAR=2005
DGENRE=Latin
TTITLE0=Ritmo de locos (original)
TTITLE1=Ritmo de locos (siren mix)
TTITLE2=Ritmo de locos (drummz mix)
TTITLE3=Ritmo de locos (stringz mix)
EXTD=
EXTT0=
EXTT1=
EXTT2=
EXTT3=
PLAYORDER=
